<svg width="163" height="35" viewBox="0 0 163 35" fill="none" xmlns="http://www.w3.org/2000/svg">
<g clip-path="url(#clip0_211_1118)">
<path d="M15.722 0L0.0410156 34.9592H4.44067L8.43231 25.8743H26.7925L30.8046 34.9592H35.2042L19.496 0H15.722ZM10.0983 22.0935L17.5784 5.09326L25.0585 22.0935H10.0983Z" fill="#19183A"/>
<path d="M40.8008 3.82824H52.8981V34.959H56.9646V3.82824H69.0619V0.0541992H40.8008V3.82824Z" fill="#19183A"/>
<path d="M158.123 0.00683594L145.849 18.9043L133.439 0.00683594H129.236V34.9592H133.303V6.94972L145.829 25.9355L158.409 6.96331V34.9592H162.421V0.00683594H158.123Z" fill="#19183A"/>
<path d="M98.3638 0C94.9033 0 91.5205 1.02616 88.6432 2.94871C85.7659 4.87126 83.5233 7.60386 82.199 10.8009C80.8748 13.998 80.5283 17.516 81.2034 20.91C81.8785 24.304 83.5449 27.4216 85.9918 29.8686C88.4388 32.3155 91.5564 33.9819 94.9504 34.657C98.3444 35.3321 101.862 34.9856 105.059 33.6613C108.257 32.3371 110.989 30.0945 112.912 27.2172C114.834 24.3399 115.86 20.9571 115.86 17.4966C115.855 12.8579 114.01 8.41068 110.73 5.1306C107.45 1.85052 103.003 0.00539911 98.3638 0ZM98.3638 29.1927H98.3298C95.2293 29.1882 92.2574 27.9528 90.0674 25.758C87.8773 23.5632 86.6484 20.5886 86.6507 17.4881C86.6529 14.3876 87.8862 11.4148 90.0794 9.22319C92.2726 7.03158 95.2463 5.80048 98.3468 5.80048C101.447 5.80048 104.421 7.03158 106.614 9.22319C108.807 11.4148 110.041 14.3876 110.043 17.4881C110.045 20.5886 108.816 23.5632 106.626 25.758C104.436 27.9528 101.464 29.1882 98.3638 29.1927ZM105.089 27.6491C104.615 28.4128 104.208 29.2159 103.872 30.0495C103.811 30.1923 103.756 30.3283 103.695 30.4643L103.185 30.2603C102.399 29.9196 101.584 29.6488 100.751 29.4511C102.307 29.1433 103.788 28.5334 105.109 27.6559L105.089 27.6491ZM95.9498 29.4579C95.0766 29.6576 94.2232 29.9352 93.3997 30.2875L92.9781 30.4575L92.7605 29.9543C92.4466 29.1534 92.062 28.3819 91.6113 27.6491C92.9259 28.5288 94.3996 29.1433 95.9498 29.4579ZM88.2113 24.2491C87.449 23.7726 86.6457 23.3652 85.8109 23.0319L85.396 22.8483L85.6 22.3451C85.9398 21.5562 86.2105 20.7394 86.4093 19.9038C86.7233 21.4551 87.3353 22.9308 88.2113 24.2491ZM85.5796 12.5325C85.5184 12.3965 85.464 12.2537 85.4096 12.1177L85.9128 11.9001C86.7149 11.581 87.4883 11.1942 88.2249 10.7441C87.3407 12.0588 86.726 13.5357 86.4161 15.0894C86.209 14.2153 85.9292 13.36 85.5796 12.5325ZM91.6181 7.35768C92.0908 6.5909 92.498 5.78564 92.8353 4.95046C92.8965 4.80765 92.9577 4.67165 93.0121 4.53565L93.5221 4.73965C94.3121 5.07633 95.1287 5.34699 95.9634 5.54886C94.4106 5.86184 92.9343 6.47639 91.6181 7.35768ZM100.778 5.54886C101.661 5.34323 102.526 5.06344 103.362 4.71245L103.777 4.54925L103.994 5.05246C104.311 5.8535 104.698 6.62493 105.15 7.35768C103.824 6.47608 102.339 5.86166 100.778 5.54886ZM108.516 10.7577C109.28 11.2317 110.083 11.6389 110.917 11.9749L111.332 12.1517C111.27 12.3217 111.202 12.4917 111.134 12.6617C110.793 13.4507 110.52 14.2674 110.318 15.103C110.01 13.5498 109.398 12.073 108.516 10.7577ZM110.318 19.9174C110.525 20.7807 110.805 21.6247 111.155 22.4403L111.318 22.8619L110.842 23.1203C110.043 23.433 109.273 23.8176 108.544 24.2695C109.413 22.9483 110.016 21.4699 110.318 19.9174ZM110.563 17.5034C110.566 15.8963 110.918 14.309 111.597 12.8521L111.787 12.3625C112.526 12.6916 113.199 13.1525 113.773 13.7226C114.025 13.9798 114.252 14.2598 114.453 14.559C115.072 15.525 115.37 16.6622 115.304 17.8078C115.238 18.9534 114.812 20.0489 114.086 20.9374L113.963 21.1006C113.897 21.1922 113.825 21.2786 113.746 21.359C113.172 21.9262 112.502 22.3867 111.767 22.7191C111.712 22.5899 111.665 22.4607 111.61 22.3247C110.921 20.8106 110.564 19.1668 110.563 17.5034ZM112.42 8.9285V8.7449C112.378 8.35269 112.299 7.9655 112.182 7.58889C113.702 9.69351 114.717 12.1206 115.146 14.6814C115.072 14.5386 114.983 14.3958 114.895 14.2598C114.67 13.9226 114.413 13.6082 114.126 13.3214C113.503 12.7211 112.778 12.2375 111.984 11.8933C112.297 11.0648 112.463 10.188 112.474 9.30251C112.463 9.17691 112.445 9.05204 112.42 8.9285ZM111.903 8.7925C111.899 8.85818 111.899 8.92402 111.903 8.9897C111.911 9.10289 111.911 9.21652 111.903 9.32971C111.896 10.1339 111.746 10.9306 111.461 11.6825L111.066 11.5125C109.519 10.9387 108.112 10.0416 106.939 8.8809C105.807 7.74119 104.935 6.37027 104.382 4.86206L104.171 4.37245C104.919 4.07988 105.714 3.92551 106.517 3.91684C106.88 3.916 107.243 3.95246 107.598 4.02565C108.729 4.26056 109.755 4.84908 110.529 5.70605C111.303 6.56301 111.784 7.64397 111.903 8.7925ZM108.197 3.64484C108.047 3.60404 107.898 3.56324 107.741 3.53604C107.348 3.449 106.947 3.40342 106.544 3.40004C105.678 3.41795 104.822 3.58828 104.015 3.90324C103.65 3.09786 103.146 2.36342 102.525 1.73402C102.223 1.42804 101.885 1.15873 101.519 0.931611C101.405 0.857094 101.287 0.788987 101.165 0.727608C103.7 1.15602 106.104 2.15344 108.197 3.64484ZM101.254 1.36002C101.596 1.57514 101.913 1.82835 102.199 2.11482C102.763 2.68822 103.224 3.35553 103.559 4.08685L103.165 4.24325C101.67 4.9274 100.048 5.28665 98.4046 5.29726C96.7985 5.29267 95.2121 4.94247 93.7533 4.27045L93.2229 4.08005C93.552 3.34112 94.0129 2.66827 94.583 2.09442C94.8142 1.87402 95.062 1.67169 95.3242 1.48922C96.1917 0.89047 97.2158 0.55913 98.2696 0.536167C99.3235 0.513204 100.361 0.799626 101.254 1.36002ZM95.5826 0.734408C95.3846 0.834579 95.1938 0.948179 95.0114 1.07441C94.7189 1.27537 94.4457 1.50301 94.1954 1.75442C93.5888 2.37759 93.1003 3.10566 92.7537 3.90324C91.9284 3.58584 91.0538 3.41553 90.1697 3.40004C89.737 3.40136 89.3059 3.45154 88.8845 3.54964L88.5241 3.64484C90.6237 2.14963 93.0386 1.15625 95.5826 0.741208V0.734408ZM84.8724 8.3505C85.0669 7.31277 85.5616 6.35494 86.2954 5.5958C87.0291 4.83667 87.9696 4.30963 89.0001 4.08005C89.3945 3.9875 89.7985 3.94185 90.2037 3.94405C91.0053 3.95577 91.7989 4.10529 92.5497 4.38605C92.4885 4.51525 92.4341 4.64445 92.3797 4.78045C91.803 6.31512 90.9112 7.71193 89.7617 8.8809C88.6237 10.015 87.2523 10.8876 85.7428 11.4377L85.26 11.6485C84.962 10.9019 84.8052 10.1064 84.7976 9.30251C84.7928 8.98353 84.8179 8.6648 84.8724 8.3505ZM84.5324 7.67049C84.4722 7.87411 84.4223 8.08064 84.3828 8.28929C84.315 8.63653 84.2809 8.98951 84.2808 9.34331C84.2928 10.2124 84.4633 11.0719 84.784 11.8797C83.9745 12.2403 83.2372 12.7449 82.608 13.369C82.2107 13.7715 81.874 14.2296 81.6084 14.729C82.0277 12.1743 83.0281 9.75013 84.5324 7.64329V7.67049ZM82.9616 13.6818C83.54 13.114 84.2146 12.6535 84.954 12.3217C85.0016 12.4577 85.056 12.5869 85.1104 12.7161C85.7915 14.2114 86.1506 15.8332 86.1645 17.4762C86.1612 19.0832 85.8085 20.6703 85.1308 22.1275L84.9336 22.6171C84.1958 22.2896 83.525 21.8285 82.9548 21.257C81.9615 20.2461 81.4055 18.8852 81.4068 17.468C81.4081 16.0508 81.9665 14.6909 82.9616 13.6818ZM84.5052 27.3363C83.0215 25.248 82.0289 22.8513 81.6016 20.3254C81.8659 20.8256 82.2027 21.2839 82.6012 21.6854C83.2298 22.29 83.9623 22.7761 84.7636 23.1203C84.4506 23.9485 84.2872 24.8257 84.2808 25.7111C84.282 26.2609 84.3598 26.8079 84.512 27.3363H84.5052ZM84.7704 25.6907C84.7776 24.8798 84.9272 24.0765 85.2124 23.3175L85.6068 23.4875C87.1627 24.0634 88.5788 24.9627 89.7617 26.1259C90.8952 27.2656 91.7697 28.6364 92.3253 30.1447L92.5293 30.6275C91.7849 30.9249 90.9917 31.0817 90.1901 31.09C89.4797 31.0926 88.7757 30.9549 88.1187 30.6847C87.4616 30.4145 86.8644 30.0171 86.3615 29.5154C85.8585 29.0136 85.4596 28.4175 85.1877 27.7611C84.9158 27.1047 84.7763 26.4011 84.7772 25.6907H84.7704ZM88.5241 31.3552C89.0567 31.509 89.6085 31.5868 90.1629 31.5864C91.0355 31.5726 91.8989 31.4045 92.7129 31.09C93.0728 31.8962 93.575 32.631 94.1954 33.2592C94.5562 33.6138 94.9634 33.918 95.4058 34.1636L95.6166 34.2792C93.0619 33.8599 90.6377 32.8595 88.5309 31.3552H88.5241ZM95.6574 33.7352C95.2421 33.51 94.86 33.2286 94.5218 32.8988C93.9557 32.3216 93.4954 31.6495 93.1617 30.9132L93.5561 30.75C95.0515 30.0691 96.6732 29.71 98.3162 29.6959H98.3502C99.9524 29.7031 101.534 30.0557 102.988 30.7295L103.477 30.9268C103.147 31.6631 102.687 32.3336 102.117 32.9056C101.861 33.1615 101.579 33.3895 101.274 33.5856C100.441 34.118 99.4784 34.4133 98.49 34.4396C97.5015 34.466 96.5246 34.2225 95.6642 33.7352H95.6574ZM101.172 34.2656C101.315 34.184 101.465 34.1024 101.607 34.0072C101.941 33.7883 102.251 33.5354 102.532 33.2524C103.135 32.6263 103.623 31.8989 103.974 31.1036C104.8 31.4172 105.675 31.5807 106.558 31.5864C107.063 31.58 107.566 31.5092 108.054 31.3756L108.251 31.3144C106.15 32.8256 103.731 33.8352 101.179 34.2656H101.172ZM111.835 26.7855C111.619 27.7585 111.141 28.6536 110.451 29.3731C109.762 30.0926 108.888 30.6089 107.925 30.8656C107.482 30.9907 107.025 31.0571 106.565 31.0628C105.755 31.0568 104.954 30.9047 104.198 30.6139L104.368 30.2263C104.942 28.679 105.839 27.2719 107 26.0987C108.139 24.9627 109.513 24.09 111.026 23.5419L111.508 23.3311C111.801 24.0791 111.955 24.874 111.964 25.6771C111.962 26.0476 111.921 26.4169 111.842 26.7787L111.835 26.7855ZM112.209 27.3431C112.258 27.1941 112.296 27.0418 112.324 26.8875C112.406 26.4961 112.447 26.0973 112.447 25.6975C112.435 24.8262 112.264 23.9644 111.944 23.1543C112.751 22.7927 113.488 22.2908 114.12 21.6718C114.207 21.5792 114.289 21.4816 114.364 21.3794L114.473 21.2366C114.739 20.9267 114.967 20.5866 115.153 20.2234C114.733 22.7907 113.723 25.2255 112.202 27.3363L112.209 27.3431Z" fill="#19183A"/>
<path d="M98.3623 15.4839C97.9588 15.4839 97.5644 15.6035 97.2289 15.8277C96.8934 16.0519 96.632 16.3705 96.4776 16.7432C96.3231 17.116 96.2828 17.5262 96.3615 17.9219C96.4402 18.3176 96.6345 18.6811 96.9198 18.9664C97.2051 19.2517 97.5686 19.446 97.9643 19.5247C98.36 19.6034 98.7702 19.5631 99.143 19.4086C99.5157 19.2542 99.8343 18.9928 100.059 18.6573C100.283 18.3218 100.402 17.9274 100.402 17.5239C100.402 16.9829 100.187 16.464 99.8048 16.0814C99.4222 15.6988 98.9033 15.4839 98.3623 15.4839Z" fill="#19183A"/>
</g>
<defs>
<clipPath id="clip0_211_1118">
<rect width="162.433" height="35" fill="white"/>
</clipPath>
</defs>
</svg>
