<svg width="170" height="50" viewBox="0 0 170 50" fill="none" xmlns="http://www.w3.org/2000/svg">
<g clip-path="url(#clip0_211_1126)">
<path d="M45.4727 15.4858H46.9303V35.5168H45.4727V15.4858Z" fill="#19183A"/>
<path d="M65.2603 26.7934V35.5169H63.8248V26.9038C63.8248 23.5249 62.0139 21.7581 58.9883 21.7581C55.4768 21.7581 53.3125 24.0107 53.3125 27.5664V35.5169H51.877V20.5876H53.2462V23.812C54.24 21.7139 56.3381 20.4551 59.1649 20.4551C62.831 20.4727 65.2603 22.6194 65.2603 26.7934Z" fill="#19183A"/>
<path d="M83.8559 14.2891V35.5346H82.4645V32.0232C81.294 34.3421 79.0414 35.6672 76.347 35.6672C72.1509 35.6672 68.9707 32.5532 68.9707 28.07C68.9707 23.5868 72.1509 20.4728 76.347 20.4728C78.9972 20.4728 81.2499 21.7979 82.4424 24.0505V14.2891H83.8559ZM82.4203 28.0479C82.4203 24.2935 79.8364 21.7537 76.4133 21.7537C72.9901 21.7537 70.4062 24.2935 70.4062 28.0479C70.4062 31.8023 72.9901 34.3421 76.4133 34.3421C79.8364 34.3421 82.4203 31.8067 82.4203 28.0523V28.0479Z" fill="#19183A"/>
<path d="M102.231 28.4056H89.3777C89.5323 31.9613 92.1162 34.3685 95.6939 34.3685C97.5711 34.3685 99.3379 33.6839 100.486 32.2704L101.326 33.2201C100 34.8323 97.9466 35.6494 95.6939 35.6494C91.1665 35.6494 87.9863 32.4913 87.9863 28.0523C87.9863 23.6132 91.0561 20.4551 95.1418 20.4551C99.2275 20.4551 102.275 23.547 102.275 27.986C102.248 28.1243 102.234 28.2647 102.231 28.4056ZM89.3998 27.2793H100.84C100.641 24.0549 98.2999 21.736 95.1197 21.736C91.9395 21.736 89.6427 24.0063 89.3998 27.2793Z" fill="#19183A"/>
<path d="M116.167 35.5167L111.043 28.8471L105.919 35.5167H104.285L110.204 27.8091L104.594 20.5874H106.229L111.043 26.7932L115.858 20.5874H117.47L111.86 27.8312L117.867 35.5388H116.167V35.5167Z" fill="#19183A"/>
<path d="M140.151 22.6193C140.151 27.0362 136.882 29.7526 131.626 29.7526H127.099V35.5389H123.389V15.5079H131.626C136.882 15.4859 140.151 18.1802 140.151 22.6193ZM136.397 22.6193C136.397 20.1016 134.696 18.644 131.45 18.644H127.099V26.5945H131.45C134.696 26.5945 136.397 25.1369 136.397 22.6193Z" fill="#19183A"/>
<path d="M151.458 20.0576V23.4587C151.182 23.3988 150.9 23.3692 150.618 23.3703C147.902 23.3703 146.179 24.9825 146.179 28.0965V35.517H142.602V20.2343H146.003V22.4604C147.041 20.8748 148.896 20.0576 151.458 20.0576Z" fill="#19183A"/>
<path d="M153.467 27.8756C153.467 23.3041 156.89 20.0576 161.594 20.0576C166.342 20.0576 169.743 23.282 169.743 27.8756C169.743 32.4693 166.342 35.7113 161.594 35.7113C156.89 35.7113 153.467 32.4693 153.467 27.8756ZM166.143 27.8756C166.143 24.9604 164.2 23.1053 161.594 23.1053C158.988 23.1053 157.067 24.9604 157.067 27.8756C157.067 30.7908 159.01 32.646 161.594 32.646C164.178 32.646 166.143 30.7908 166.143 27.8756Z" fill="#19183A"/>
<path d="M23.7184 15.9274L19.8757 13.7189L19.0806 13.2551L19.0144 13.2109L14.0453 10.362L13.6919 10.1411C13.4961 10.0312 13.3334 9.87081 13.2207 9.67657C13.1081 9.48234 13.0496 9.26143 13.0515 9.03689V2.54396L13.0294 1.28513C13.0268 1.05938 13.0845 0.837045 13.1965 0.641013C13.3085 0.444981 13.4707 0.282344 13.6664 0.169852C13.8621 0.0573613 14.0843 -0.000916022 14.3101 0.00102344C14.5358 0.0029629 14.757 0.0650492 14.9508 0.180887L16.0108 0.799261L19.8094 3.05191L23.7184 5.30456H23.7405L29.0629 8.37435L31.0506 9.50067L32.0444 10.0749C32.7633 10.4873 33.3605 11.0824 33.7754 11.7999C34.1904 12.5174 34.4084 13.3317 34.4075 14.1606V23.6791V24.8275C34.4039 25.3945 34.2535 25.9508 33.971 26.4424C33.6885 26.9339 33.2834 27.3439 32.7953 27.6323L30.123 29.1782L29.2396 29.7083L27.6495 30.6358L24.646 32.3805L23.7184 32.9106H23.6963L21.0241 34.4786L20.9578 34.5228L20.0303 35.0528L18.8156 35.7595L14.6195 38.1888C14.4594 38.2821 14.2776 38.3316 14.0923 38.3325C13.907 38.3334 13.7247 38.2856 13.5637 38.1939C13.4027 38.1022 13.2686 37.9699 13.1748 37.8101C13.0811 37.6503 13.0309 37.4686 13.0294 37.2834V29.0016C13.0277 28.8168 13.0761 28.6351 13.1694 28.4757C13.2627 28.3162 13.3975 28.1851 13.5594 28.0961L19.9419 24.3858L20.8032 23.8779L20.8695 23.8337L23.6963 22.1994H23.7184L26.1478 20.786C26.4506 20.6092 26.7019 20.3561 26.8766 20.0519C27.0512 19.7477 27.1431 19.4031 27.1431 19.0524C27.1431 18.7016 27.0512 18.357 26.8766 18.0528C26.7019 17.7487 26.4506 17.4955 26.1478 17.3187L23.7184 15.9274Z" fill="#19183A"/>
<path d="M3.04944e-05 27.9416V48.9443C-0.000476048 49.1304 0.0484166 49.3132 0.141715 49.4742C0.235013 49.6352 0.369373 49.7686 0.531071 49.8607C0.692769 49.9527 0.876009 50.0002 1.06208 49.9983C1.24814 49.9964 1.43037 49.9452 1.59014 49.8498L10.159 44.8807C10.3191 44.7896 10.4524 44.6579 10.5454 44.499C10.6384 44.34 10.688 44.1594 10.6891 43.9752V22.9726C10.6896 22.7865 10.6407 22.6036 10.5474 22.4426C10.4541 22.2816 10.3197 22.1483 10.158 22.0562C9.99634 21.9641 9.8131 21.9166 9.62703 21.9185C9.44096 21.9204 9.25874 21.9717 9.09897 22.0671L0.507981 27.0362C0.35188 27.1299 0.222923 27.2627 0.133843 27.4215C0.0447631 27.5803 -0.00135907 27.7596 3.04944e-05 27.9416Z" fill="#19183A"/>
<path d="M0.000133358 6.51962V23.0832C-0.000373185 23.2693 0.0485194 23.4522 0.141818 23.6132C0.235116 23.7742 0.369476 23.9075 0.531174 23.9996C0.692871 24.0917 0.876112 24.1392 1.06218 24.1373C1.24825 24.1354 1.43047 24.0841 1.59024 23.9887L10.1591 19.0638C10.3192 18.9727 10.4525 18.841 10.5455 18.6821C10.6385 18.5231 10.6881 18.3425 10.6892 18.1583V11.4666C10.6909 11.2819 10.6425 11.1001 10.5492 10.9407C10.4558 10.7813 10.321 10.6501 10.1591 10.5611L1.59024 5.63623C1.43329 5.53504 1.25181 5.47836 1.06517 5.47223C0.878531 5.46611 0.693729 5.51078 0.530488 5.60147C0.367246 5.69216 0.23169 5.82547 0.138285 5.98717C0.0448797 6.14888 -0.00286917 6.33291 0.000133358 6.51962Z" fill="#19183A"/>
</g>
<defs>
<clipPath id="clip0_211_1126">
<rect width="169.744" height="50" fill="white"/>
</clipPath>
</defs>
</svg>
