<svg width="173" height="45" viewBox="0 0 173 45" fill="none" xmlns="http://www.w3.org/2000/svg">
<path d="M35.3189 10.1496C36.49 10.1496 37.4464 9.19316 37.4464 8.02205C37.4464 6.85094 36.49 5.89453 35.3189 5.89453C34.1478 5.89453 33.1914 6.85094 33.1914 8.02205C33.1914 9.20292 34.1381 10.1496 35.3189 10.1496Z" fill="#19183A"/>
<path d="M115.578 37.6706C113.509 38.6953 111.284 38.6563 109.645 38.3537C104.424 37.5047 101.037 31.6296 101.252 24.4956C101.271 23.9588 101.369 22.9438 101.418 22.4559H121.092L121.073 21.9582C120.839 19.0792 118.565 12.4331 110.152 12.4331C101.222 12.4331 97.9727 20.2503 97.9727 26.2034C97.9727 28.0284 98.4411 30.3121 99.4365 32.4786L99.4268 32.4591C101.652 37.6023 106.346 39.8957 109.967 39.8957C117.257 39.8957 120.848 34.4598 121.61 32.1761L121.083 32.1566C120.682 33.0154 119.58 35.6894 115.578 37.6706ZM109.977 12.9211C115.53 12.9211 117.54 17.6348 117.56 21.8606H101.496C102.033 18.396 103.604 15.966 105.497 14.5216C105.497 14.5216 107.488 12.9211 109.977 12.9211Z" fill="#19183A"/>
<path d="M65.4748 12.9507H56.75V13.3606C56.75 13.3606 58.4872 13.3118 59.3265 14.1999C59.7266 14.6195 60.1853 15.6247 60.1267 16.7568C60.0877 17.5473 59.8047 18.6111 59.4826 19.5967L53.7344 34.87C53.7344 34.87 46.171 17.7718 46.005 17.2838C45.8391 16.7958 45.7611 16.4445 45.7318 16.1712C45.644 15.4198 45.7513 14.5414 46.005 14.1608C46.6296 13.2532 48.3375 13.3508 48.3375 13.3508V12.9409H38.7637V13.3508C38.7637 13.3508 40.3447 13.3606 41.2035 14.1999C41.2816 14.2779 41.6231 14.6585 42.3063 16.2298C43.3408 18.6599 52.3779 39.6228 52.3779 39.6228L53.0805 38.6468C53.0805 38.6468 59.9608 20.0066 60.3902 18.777C61.0148 17.0008 61.6199 15.7028 62.1078 15.0294C62.2933 14.7757 62.508 14.5219 62.7422 14.2975C62.8203 14.2291 62.8983 14.1511 62.9764 14.0828C63.9231 13.3508 65.465 13.3606 65.465 13.3606V12.9507H65.4748Z" fill="#19183A"/>
<path d="M83.2756 22.0557C83.2756 18.9132 81.9971 12.4136 73.7213 12.4136C66.7824 12.4136 63.5131 17.6543 62.3712 22.4754H65.5625C65.5625 19.206 67.8755 12.9308 73.5358 12.9308C79.0889 12.9308 80.1429 17.586 80.1819 21.8215V21.9386C73.9164 22.9048 63.8449 24.7688 62.2053 30.9172C60.5658 37.0655 65.9236 40.7838 72.0231 39.72C76.083 39.0173 78.718 36.1774 80.1624 34.3622V39.1052H86.6328V38.6953C86.6328 38.6953 84.7785 38.7051 83.9295 37.7291C83.4805 37.046 83.2853 36.1969 83.2853 35.4064L83.2756 22.0557ZM80.1721 33.3862C78.474 35.5918 75.2535 38.2659 70.9691 38.3049C67.5632 38.3342 63.5033 35.2795 65.7284 30.0876C67.9633 24.9054 76.5905 23.139 80.1819 22.4461L80.1721 33.3862Z" fill="#19183A"/>
<path d="M160.989 37.6706C158.92 38.6953 156.694 38.6563 155.055 38.3537C149.834 37.5047 146.447 31.6296 146.662 24.4956C146.681 23.9588 146.779 22.9438 146.828 22.4559H166.503L166.483 21.9582C166.249 19.0792 163.975 12.4331 155.562 12.4331C146.633 12.4331 143.383 20.2503 143.383 26.2034C143.383 28.0284 143.851 30.3121 144.847 32.4786L144.837 32.4591C147.062 37.6023 151.756 39.8957 155.377 39.8957C162.667 39.8957 166.259 34.4598 167.02 32.1761L166.493 32.1566C166.083 33.0154 164.98 35.6894 160.989 37.6706ZM155.387 12.9211C160.94 12.9211 162.95 17.6348 162.97 21.8606H146.906C147.443 18.396 149.014 15.966 150.907 14.5216C150.907 14.5216 152.888 12.9211 155.387 12.9211Z" fill="#19183A"/>
<path d="M13.1359 17.2834C12.97 16.7954 12.8919 16.4441 12.8626 16.1708C12.7748 15.4193 12.8822 14.541 13.1359 14.1604C13.7605 13.2528 15.4684 13.3504 15.4684 13.3504V12.9405H5.88477V13.3504C5.88477 13.3504 7.46577 13.3601 8.32458 14.1994C8.40266 14.2775 8.74423 14.6581 9.42738 16.2294L19.4697 39.6223L20.1723 38.5879C20.1723 38.5879 26.8867 20.4063 26.916 20.3283C28.1652 17.2248 29.9999 14.1311 31.7761 13.8481C33.3571 13.5944 34.8796 14.4532 34.7917 17.4981L34.821 39.1051H40.9498V38.6952C40.9498 38.6952 39.0956 38.705 38.2367 37.729C37.7878 37.0459 37.5926 36.2066 37.5926 35.4063V18.5716C37.5926 16.5709 37.5731 14.8923 36.8217 13.8481C36.0312 12.7355 34.8893 12.2866 33.6011 12.2866C32.3909 12.2866 31.1808 12.7843 30.0682 13.8676C28.7703 15.1266 27.5796 16.8052 25.8913 21.2944C24.242 25.6959 20.8165 34.811 20.8165 34.811L13.1359 17.2834Z" fill="#19183A"/>
<path d="M146.252 12.9507H137.527V13.3606C137.527 13.3606 139.264 13.3118 140.104 14.1999C140.504 14.6195 140.963 15.6247 140.904 16.7568C140.865 17.5473 140.582 18.6111 140.26 19.5967L134.512 34.87C134.512 34.87 126.948 17.7718 126.782 17.2838C126.616 16.7958 126.538 16.4445 126.509 16.1712C126.421 15.4198 126.529 14.5414 126.782 14.1608C127.407 13.2532 129.115 13.3508 129.115 13.3508V12.9409H119.541V13.3508C119.541 13.3508 121.122 13.3606 121.981 14.1999C122.059 14.2779 122.4 14.6585 123.084 16.2298C124.128 18.6403 133.165 39.613 133.165 39.613L133.868 38.6371C133.868 38.6371 140.748 19.9969 141.177 18.7672C141.802 16.991 142.407 15.693 142.895 15.0196C143.08 14.7659 143.295 14.5122 143.529 14.2877C143.607 14.2194 143.685 14.1413 143.764 14.073C144.71 13.341 146.252 13.3508 146.252 13.3508V12.9507Z" fill="#19183A"/>
</svg>
