<svg width="176" height="40" viewBox="0 0 176 40" fill="none" xmlns="http://www.w3.org/2000/svg">
<g clip-path="url(#clip0_211_1174)">
<mask id="mask0_211_1174" style="mask-type:luminance" maskUnits="userSpaceOnUse" x="0" y="0" width="176" height="40">
<path d="M176 0H0V40H176V0Z" fill="white"/>
</mask>
<g mask="url(#mask0_211_1174)">
<path d="M60.9572 31.3239C59.1603 31.3239 57.7595 30.9588 56.7551 30.229C55.7506 29.4992 55.1227 28.3718 54.871 26.8469C54.8291 26.3824 54.9238 26.0331 55.1549 25.7992C55.386 25.5652 55.7227 25.4488 56.1647 25.4499C56.6051 25.4499 56.9293 25.5555 57.1326 25.7748C57.3671 26.053 57.5127 26.3962 57.5503 26.7593C57.7073 27.4891 58.0461 27.9889 58.5666 28.2586C59.0871 28.5282 59.8834 28.6636 60.9556 28.6647H65.4965C66.8515 28.6647 67.7737 28.4183 68.263 27.9255C68.7523 27.4328 68.9965 26.5123 68.9954 25.164C68.9954 23.7995 68.7432 22.8655 68.2388 22.3619C67.7343 21.8583 66.8204 21.607 65.4965 21.6081H61.5879C59.6006 21.6081 58.1263 21.1208 57.1648 20.1462C56.2034 19.1715 55.7227 17.6819 55.7227 15.6774C55.7227 13.688 56.1981 12.2114 57.1487 11.2475C58.0993 10.2837 59.5683 9.80176 61.5557 9.80176H65.3078C66.979 9.80176 68.2904 10.1462 69.2422 10.835C70.1939 11.5237 70.7955 12.5769 71.0472 13.9944C71.1096 14.4493 71.0251 14.7959 70.7939 15.0341C70.5633 15.2712 70.2164 15.3914 69.7535 15.3914C69.3341 15.3914 69.0179 15.2794 68.8083 15.0568C68.5745 14.7826 68.4312 14.442 68.3985 14.0822C68.2307 13.4584 67.9081 13.0323 67.4307 12.8037C66.9563 12.5763 66.2483 12.4626 65.3013 12.4626H61.5557C60.2943 12.4626 59.4485 12.6879 59.0183 13.1384C58.5881 13.5889 58.373 14.433 58.373 15.6708C58.373 16.9195 58.5935 17.7766 59.0344 18.2424C59.4753 18.7081 60.327 18.9408 61.5895 18.9408H65.4997C67.5689 18.9408 69.111 19.4488 70.1261 20.4646C71.1412 21.4803 71.6484 23.0469 71.6473 25.164C71.6473 27.2714 71.1429 28.825 70.1342 29.8245C69.1255 30.824 67.5807 31.3239 65.4997 31.3239H60.9572Z" fill="#19183A"/>
<path d="M89.8089 15.2256C90.6921 15.2256 91.1329 15.6702 91.1321 16.5593V29.99C91.1321 30.8802 90.6913 31.3249 89.8089 31.3237C88.9273 31.3226 88.4833 30.8781 88.4785 29.99V29.467C87.3633 30.7048 85.7233 31.3237 83.5585 31.3237H82.6761C80.5737 31.3237 79.0179 30.8158 78.0092 29.8C77.0005 28.7843 76.4961 27.2177 76.4961 25.1005V16.5593C76.4961 15.6713 76.9376 15.2267 77.8205 15.2256C78.7033 15.2245 79.1443 15.6691 79.1432 16.5593V25.1005C79.1432 26.4878 79.3932 27.4272 79.8933 27.9189C80.3937 28.4106 81.3209 28.6569 82.6761 28.658H83.5585C84.6761 28.6791 85.7905 28.5318 86.8649 28.2211C87.8009 27.9308 88.3425 27.4727 88.4897 26.8468V16.5593C88.4817 15.6713 88.9217 15.2267 89.8089 15.2256Z" fill="#19183A"/>
<path d="M99.0162 31.3237C98.133 31.3237 97.6914 30.8791 97.6914 29.99V16.5593C97.6914 15.6713 98.133 15.2267 99.0162 15.2256C99.8986 15.2245 100.34 15.6691 100.34 16.5593V17.084C101.455 15.845 103.094 15.2256 105.255 15.2256H106.139C108.241 15.2256 109.796 15.7335 110.806 16.7493C111.816 17.7651 112.321 19.3294 112.323 21.4423V29.9836C112.323 30.8737 111.881 31.3183 110.998 31.3172C110.115 31.3161 109.674 30.8716 109.674 29.9836V21.4423C109.674 20.0572 109.424 19.1178 108.925 18.6239C108.427 18.1301 107.499 17.8844 106.143 17.8865H105.255C104.142 17.8666 103.031 18.0138 101.962 18.3234C101.026 18.6137 100.484 19.0711 100.337 19.696V29.9836C100.339 30.8781 99.8986 31.3249 99.0162 31.3237Z" fill="#19183A"/>
<path d="M123.988 31.324C121.897 31.324 120.345 30.8134 119.329 29.7921C118.314 28.7708 117.807 27.2072 117.809 25.1007V21.4425C117.809 19.3264 118.315 17.76 119.329 16.743C120.344 15.7262 121.897 15.2183 123.988 15.2194H130.105V10.3038C130.105 9.4158 130.546 8.97126 131.429 8.97022C132.312 8.96909 132.753 9.41363 132.753 10.3038V29.9903C132.753 30.8805 132.312 31.3251 131.429 31.324C130.546 31.3228 130.105 30.8784 130.105 29.9903V29.7694C129.561 30.3066 128.897 30.7039 128.169 30.9276C127.371 31.1929 126.378 31.3251 125.19 31.324H123.988ZM123.988 28.6583H125.186C126.574 28.6583 127.741 28.478 128.687 28.1173C129.633 27.7567 130.106 27.2065 130.105 26.4669V17.8931H123.988C122.621 17.8931 121.691 18.1445 121.197 18.6469C120.704 19.1493 120.457 20.0813 120.457 21.4425V25.0943C120.457 26.4706 120.706 27.4075 121.205 27.9045C121.705 28.4016 122.632 28.6529 123.988 28.6583Z" fill="#19183A"/>
<path d="M139.888 12.6217C138.882 12.6217 138.379 12.1159 138.379 11.1045V10.1558C138.379 9.16816 138.882 8.67432 139.888 8.67432H140.793C141.746 8.67432 142.223 9.16816 142.223 10.1558V11.1045C142.223 12.117 141.746 12.6227 140.793 12.6217H139.888ZM140.323 31.3237C139.439 31.3237 138.997 30.8791 138.999 29.99V16.5593C138.999 15.6713 139.441 15.2267 140.323 15.2256C141.206 15.2245 141.648 15.6691 141.648 16.5593V29.99C141.648 30.8802 141.206 31.3249 140.323 31.3237Z" fill="#19183A"/>
<path d="M153.123 31.3237C151.357 31.3237 150.043 30.8905 149.181 30.0242C148.319 29.1578 147.89 27.8349 147.891 26.0557C147.891 24.2774 148.321 22.9542 149.181 22.0856C150.041 21.217 151.359 20.7839 153.131 20.786H159.8C159.738 19.6749 159.448 18.9168 158.932 18.5119C158.416 18.1069 157.534 17.9031 156.285 17.901H154.455C153.403 17.901 152.619 17.9725 152.104 18.1155C151.589 18.2584 151.227 18.5151 151.017 18.8855C150.892 19.2318 150.694 19.5463 150.435 19.8065C150.173 19.9943 149.855 20.0839 149.535 20.0599C149.151 20.0817 148.776 19.9471 148.494 19.6863C148.243 19.4373 148.168 19.1069 148.273 18.6954C148.589 17.4977 149.249 16.6215 150.252 16.0671C151.255 15.5126 152.656 15.2321 154.455 15.2256H156.277C158.379 15.2256 159.935 15.7335 160.943 16.7493C161.951 17.7651 162.455 19.3317 162.457 21.4488V29.99C162.457 30.8802 162.015 31.3249 161.133 31.3237C160.25 31.3226 159.808 30.8781 159.808 29.99V29.2769C158.683 30.6415 157.043 31.3237 154.888 31.3237H153.123ZM153.123 28.658H154.888C155.624 28.6617 156.359 28.5893 157.08 28.442C157.719 28.32 158.32 28.0515 158.839 27.6574C159.345 27.2459 159.688 26.6657 159.807 26.0216V23.4501H153.123C152.083 23.4501 151.391 23.6244 151.049 23.9732C150.707 24.322 150.537 25.0156 150.538 26.054C150.538 27.1023 150.708 27.7982 151.049 28.1415C151.39 28.4847 152.082 28.6569 153.123 28.658Z" fill="#19183A"/>
<path d="M173.462 31.324C171.848 31.324 170.653 30.9249 169.874 30.1267C169.094 29.3287 168.704 28.119 168.699 26.4978V10.3038C168.699 9.4158 169.142 8.97126 170.024 8.97022C170.906 8.96909 171.348 9.41363 171.348 10.3038V26.4978C171.348 27.3555 171.487 27.9301 171.766 28.2213C172.045 28.5125 172.61 28.6583 173.462 28.6583C174.365 28.6583 174.816 29.1022 174.816 29.9903C174.849 30.8805 174.397 31.3251 173.462 31.324Z" fill="#19183A"/>
<path d="M26.928 29.8036H13.9168C13.2908 29.8036 12.7666 29.6037 12.4795 29.2561C12.2836 29.0274 12.2167 28.7141 12.302 28.4244L19.8981 1.60021C20.0143 1.1941 20.1901 0.987793 20.4224 0.987793C20.6547 0.987793 20.8305 1.1941 20.9467 1.60021L28.5444 28.4277C28.628 28.7173 28.5612 29.0298 28.367 29.2594C28.0798 29.6037 27.5556 29.8036 26.928 29.8036ZM20.4224 1.41339C20.3684 1.50237 20.3285 1.59942 20.3047 1.70092L12.7069 28.5235C12.6556 28.6933 12.6953 28.8776 12.8118 29.0109C13.015 29.2577 13.428 29.4055 13.9168 29.4055H26.928C27.412 29.4055 27.8298 29.2577 28.0347 29.0109C28.1496 28.877 28.1892 28.6933 28.1395 28.5235L20.5418 1.70092C20.5176 1.59925 20.4772 1.50216 20.4224 1.41339Z" fill="#19183A"/>
<path d="M26.9277 29.9057H13.9165C13.2599 29.9057 12.7066 29.6928 12.4017 29.3209C12.1837 29.0662 12.1095 28.7172 12.2049 28.3949L19.8285 1.47817C19.9592 1.08505 20.1511 0.885254 20.4205 0.885254C20.6899 0.885254 20.9125 1.11592 21.0416 1.57239L28.6393 28.3949C28.733 28.7172 28.6589 29.0654 28.4425 29.3209C28.1376 29.6928 27.5843 29.9057 26.9277 29.9057ZM19.9689 1.72183L12.3985 28.4518C12.3245 28.7098 12.3853 28.988 12.5598 29.191C12.8276 29.5158 13.3229 29.7026 13.9197 29.7026H26.931C27.5278 29.7026 28.0231 29.5158 28.2909 29.191C28.4654 28.988 28.5262 28.7098 28.4521 28.4518L20.8496 1.62437C20.748 1.26537 20.6044 1.08344 20.4221 1.08344C20.2398 1.08344 20.1253 1.23126 20.0269 1.52203L20.1253 1.5464L20.0769 1.74457L19.9689 1.72183ZM26.9277 29.5142H13.9165C13.3986 29.5142 12.9486 29.3518 12.7325 29.0821C12.5938 28.9212 12.5474 28.6994 12.6098 28.4957L20.206 1.6731C20.2331 1.55831 20.2784 1.44864 20.3398 1.34822L20.4221 1.22638L20.506 1.34822C20.5665 1.44896 20.6112 1.55856 20.6383 1.6731L28.236 28.4957C28.2969 28.6997 28.2502 28.921 28.1118 29.0821C27.8892 29.3518 27.4456 29.5142 26.9277 29.5142ZM20.4221 1.65686C20.4221 1.6796 20.4076 1.70234 20.4012 1.72833L12.8034 28.5525C12.7594 28.6915 12.792 28.8436 12.8889 28.9522C13.0728 29.1763 13.4584 29.3111 13.9165 29.3111H26.9277C27.3875 29.3111 27.7714 29.1763 27.9569 28.9522C28.0528 28.843 28.0845 28.6912 28.0408 28.5525L20.4447 1.72833C20.4366 1.70234 20.4302 1.6796 20.4221 1.65686Z" fill="#19183A"/>
<path d="M26.927 29.8668H13.9157C13.2705 29.8668 12.7285 29.6589 12.4301 29.2966C12.2207 29.0517 12.149 28.7165 12.2397 28.4064L19.8374 1.58383L19.8536 1.52535C19.9778 1.12574 20.1762 0.924316 20.4198 0.924316C20.6633 0.924316 20.8811 1.14524 21.0037 1.58383L28.6014 28.4064C28.6929 28.7162 28.6217 29.0515 28.4127 29.2966C28.1143 29.6589 27.5723 29.8668 26.927 29.8668ZM19.9423 1.67643L12.3607 28.4405C12.2802 28.7097 12.3409 29.0015 12.5221 29.2154C12.7962 29.55 13.3028 29.7401 13.9109 29.7401H26.9222C27.5304 29.7401 28.0369 29.55 28.3127 29.2154C28.4932 29.0013 28.5539 28.7097 28.474 28.4405L20.8892 1.62445C20.7827 1.24758 20.6279 1.05752 20.4262 1.05752C20.2246 1.05752 20.0875 1.21996 19.9826 1.56109L20.1197 1.59521L20.0907 1.71866L19.9423 1.67643ZM26.927 29.4753H13.9157C13.4093 29.4753 12.9769 29.3128 12.7624 29.0578C12.6301 28.9077 12.5855 28.6988 12.6446 28.5071L20.244 1.68292C20.2705 1.57515 20.3137 1.47215 20.3714 1.37753L20.4214 1.29956L20.4746 1.37753C20.5317 1.47234 20.5741 1.57531 20.6005 1.68292L28.1981 28.5071C28.2577 28.6985 28.2137 28.9074 28.0821 29.0578C27.8659 29.3194 27.4336 29.4753 26.927 29.4753ZM20.4214 1.5481C20.3989 1.60385 20.3796 1.6608 20.3633 1.71866L12.7656 28.5412C12.7183 28.6928 12.7538 28.8583 12.8592 28.9766C13.0511 29.2105 13.4463 29.3486 13.9157 29.3486H26.927C27.3965 29.3486 27.7933 29.2105 27.9853 28.9766C28.0899 28.858 28.1249 28.6924 28.0772 28.5412L20.4795 1.71866C20.464 1.66058 20.4445 1.60358 20.4214 1.5481Z" fill="#19183A"/>
<path d="M26.9282 29.9691H13.9169C13.241 29.9691 12.6716 29.7482 12.3538 29.3615C12.123 29.0909 12.0441 28.721 12.1441 28.3788L19.7854 1.39861C19.9257 1.01525 20.137 0.820312 20.4161 0.820312C20.7387 0.820312 20.9597 1.06723 21.0984 1.55293L28.701 28.3788C28.8023 28.7207 28.7239 29.0911 28.4929 29.3615C28.1751 29.7482 27.6041 29.9691 26.9282 29.9691ZM20.0128 1.79822L12.4586 28.4697C12.3899 28.7071 12.4451 28.9632 12.6054 29.1504C12.8619 29.4606 13.3394 29.6377 13.9169 29.6377H26.9282C27.5057 29.6377 27.9848 29.459 28.2397 29.1504C28.4 28.9632 28.4551 28.7071 28.3864 28.4697L20.7887 1.64552C20.7274 1.42948 20.6194 1.17444 20.4451 1.1582L20.558 1.32064C20.6227 1.42368 20.6702 1.53673 20.6984 1.65527L28.2961 28.4779C28.3659 28.7035 28.3146 28.9494 28.1606 29.1276C27.9251 29.4119 27.4654 29.5824 26.9282 29.5824H13.9169C13.3797 29.5824 12.92 29.4119 12.6845 29.1276C12.5303 28.9494 12.479 28.7035 12.549 28.4779L20.0999 1.82096L20.0128 1.79822ZM20.4226 1.88269L12.8635 28.5688C12.8245 28.6892 12.8528 28.8215 12.9378 28.9148C13.1103 29.1244 13.4765 29.2511 13.9169 29.2511H26.9282C27.3686 29.2511 27.7347 29.1244 27.909 28.9148C27.9915 28.8215 28.0191 28.6911 27.9815 28.572L20.4226 1.88269ZM20.1112 1.48308L20.1967 1.5042C20.2196 1.43916 20.2499 1.37703 20.287 1.31901L20.3999 1.15657C20.2677 1.16956 20.1725 1.32389 20.1112 1.48308Z" fill="#19183A"/>
<path d="M37.3434 35.8122C38.0032 36.3694 37.7935 36.6163 36.8789 36.3629L26.955 33.6128C26.0404 33.3593 24.5434 32.9402 23.6305 32.6836L14.0809 29.9919C13.1678 29.7336 13.2146 29.5289 14.1873 29.5338L22.0205 29.5809C22.9884 29.5809 24.5821 29.5923 25.5549 29.5923H27.4906C28.4585 29.5923 29.8748 29.9838 30.6281 30.4614L30.712 30.5149C31.6032 31.0926 32.4617 31.7201 33.2833 32.3944L37.3434 35.8122Z" fill="#19183A"/>
<path d="M44.2129 29.402H43.6837C43.6837 27.0628 41.8754 24.8065 38.5912 23.0505C35.273 21.2766 30.7482 20.1671 25.8477 19.9283L25.8734 19.3955C36.3312 19.9072 44.2129 24.2038 44.2129 29.402Z" fill="#19183A"/>
<path d="M44.4159 29.6068H43.4835V29.4021C43.4835 27.1409 41.7091 24.9495 38.4974 23.2293C35.2051 21.4684 30.711 20.367 25.8442 20.1298L25.6426 20.1185L25.6877 19.1812L25.8894 19.1909C36.452 19.7059 44.4159 24.0951 44.4159 29.4005V29.6068ZM43.8819 29.2007H44.0078C43.8045 24.2413 36.1761 20.1526 26.0716 19.6165V19.7432C30.911 20.0047 35.3954 21.1158 38.6926 22.88C41.9462 24.6165 43.7819 26.8566 43.8819 29.2007Z" fill="#19183A"/>
<path d="M21.391 38.9749C15.9774 38.9749 10.8848 37.9467 7.0505 36.0802C3.15324 34.1844 1.00781 31.6406 1.00781 28.9148C1.00781 26.743 2.37088 24.6799 4.94863 22.9499C7.42797 21.2865 10.8332 20.0568 14.7886 19.394L14.8757 19.9204C10.9945 20.575 7.66187 21.7754 5.24221 23.3918C2.82256 25.0081 1.53207 26.933 1.53207 28.9148C1.53207 31.4213 3.57104 33.7881 7.27472 35.5977C11.0494 37.4317 16.05 38.4405 21.391 38.4405V38.9749Z" fill="#19183A"/>
<path d="M21.5931 39.1781H21.3915C15.9488 39.1781 10.824 38.1434 6.96225 36.2639C2.9924 34.3324 0.806641 31.7236 0.806641 28.915C0.806641 26.6717 2.20037 24.5502 4.83941 22.7811C7.33972 21.1063 10.7724 19.8653 14.76 19.196L14.96 19.1636L15.1213 20.0895L14.9213 20.1235C11.0611 20.7734 7.75589 21.9608 5.36044 23.5674C2.98433 25.1528 1.74063 27.003 1.74063 28.915C1.74063 31.3402 3.73926 33.6486 7.36875 35.4127C11.1063 37.2321 16.0795 38.2327 21.3915 38.2327H21.5931V39.1781ZM14.6293 19.6314C10.7805 20.2974 7.47522 21.5027 5.0604 23.1239C2.54234 24.8133 1.20992 26.8162 1.20992 28.915C1.20992 31.5547 3.31501 34.0336 7.13808 35.9C10.8983 37.7292 15.8811 38.7476 21.1883 38.772V38.6453C15.9005 38.621 10.9369 37.6073 7.19293 35.7847C3.41665 33.9507 1.33574 31.5141 1.33574 28.915C1.33574 26.8585 2.64881 24.8913 5.13138 23.2295C7.53168 21.6197 10.8192 20.4192 14.6487 19.7564L14.6293 19.6314Z" fill="#19183A"/>
</g>
</g>
<defs>
<clipPath id="clip0_211_1174">
<rect width="176" height="40" fill="white"/>
</clipPath>
</defs>
</svg>
